<mxfile host="app.diagrams.net" modified="2024-05-09T20:34:51.860Z" agent="Mozilla/5.0 (Windows NT 10.0; Win64; x64) AppleWebKit/537.36 (KHTML, like Gecko) Chrome/121.0.0.0 Safari/537.36 OPR/107.0.0.0" etag="1Su2Gbmcj2O08BWe_-Ih" version="24.3.1" type="device">
  <diagram name="Page-1" id="-ow4DpQ6KdscyZ0m3crN">
    <mxGraphModel dx="1009" dy="581" grid="1" gridSize="10" guides="1" tooltips="1" connect="1" arrows="1" fold="1" page="1" pageScale="1" pageWidth="850" pageHeight="1100" math="0" shadow="0">
      <root>
        <mxCell id="0" />
        <mxCell id="1" parent="0" />
        <mxCell id="L2JsjosqdbN5uO_wockT-1" value="" style="rounded=0;whiteSpace=wrap;html=1;fontFamily=Times New Roman;fontSize=14;" parent="1" vertex="1">
          <mxGeometry y="160" width="360" height="240" as="geometry" />
        </mxCell>
        <mxCell id="L2JsjosqdbN5uO_wockT-2" value="" style="rounded=0;whiteSpace=wrap;html=1;fontFamily=Times New Roman;fontSize=14;" parent="1" vertex="1">
          <mxGeometry x="490" y="160" width="240" height="240" as="geometry" />
        </mxCell>
        <mxCell id="L2JsjosqdbN5uO_wockT-3" value="Server" style="text;html=1;align=center;verticalAlign=middle;whiteSpace=wrap;rounded=0;fontFamily=Times New Roman;fontSize=14;" parent="1" vertex="1">
          <mxGeometry y="160" width="60" height="30" as="geometry" />
        </mxCell>
        <mxCell id="L2JsjosqdbN5uO_wockT-4" value="Client" style="text;html=1;align=center;verticalAlign=middle;whiteSpace=wrap;rounded=0;fontFamily=Times New Roman;fontSize=14;" parent="1" vertex="1">
          <mxGeometry x="490" y="160" width="60" height="30" as="geometry" />
        </mxCell>
        <mxCell id="L2JsjosqdbN5uO_wockT-6" value="" style="endArrow=classic;startArrow=classic;html=1;rounded=0;entryX=0;entryY=0.5;entryDx=0;entryDy=0;exitX=1;exitY=0.5;exitDx=0;exitDy=0;fontFamily=Times New Roman;fontSize=14;" parent="1" source="L2JsjosqdbN5uO_wockT-22" edge="1">
          <mxGeometry width="50" height="50" relative="1" as="geometry">
            <mxPoint x="330" y="330" as="sourcePoint" />
            <mxPoint x="550" y="330" as="targetPoint" />
          </mxGeometry>
        </mxCell>
        <mxCell id="L2JsjosqdbN5uO_wockT-7" value="HTTPS/1.1" style="text;html=1;align=center;verticalAlign=middle;whiteSpace=wrap;rounded=0;fontFamily=Times New Roman;fontSize=14;" parent="1" vertex="1">
          <mxGeometry x="395" y="180" width="60" height="30" as="geometry" />
        </mxCell>
        <mxCell id="L2JsjosqdbN5uO_wockT-8" value="WS/13" style="text;html=1;align=center;verticalAlign=middle;whiteSpace=wrap;rounded=0;fontFamily=Times New Roman;fontSize=14;" parent="1" vertex="1">
          <mxGeometry x="395" y="330" width="60" height="30" as="geometry" />
        </mxCell>
        <mxCell id="L2JsjosqdbN5uO_wockT-19" value="" style="endArrow=classic;startArrow=classic;html=1;rounded=0;entryX=0.5;entryY=1;entryDx=0;entryDy=0;fontFamily=Times New Roman;fontSize=14;" parent="1" edge="1">
          <mxGeometry width="50" height="50" relative="1" as="geometry">
            <mxPoint x="610" y="300" as="sourcePoint" />
            <mxPoint x="610" y="250" as="targetPoint" />
          </mxGeometry>
        </mxCell>
        <mxCell id="L2JsjosqdbN5uO_wockT-21" value="" style="rounded=1;whiteSpace=wrap;html=1;fontFamily=Times New Roman;fontSize=14;" parent="1" vertex="1">
          <mxGeometry x="190" y="190" width="120" height="60" as="geometry" />
        </mxCell>
        <mxCell id="L2JsjosqdbN5uO_wockT-22" value="" style="rounded=1;whiteSpace=wrap;html=1;fontFamily=Times New Roman;fontSize=14;" parent="1" vertex="1">
          <mxGeometry x="190" y="300" width="120" height="60" as="geometry" />
        </mxCell>
        <mxCell id="L2JsjosqdbN5uO_wockT-24" value="" style="rounded=1;whiteSpace=wrap;html=1;fontFamily=Times New Roman;fontSize=14;" parent="1" vertex="1">
          <mxGeometry x="550" y="190" width="120" height="60" as="geometry" />
        </mxCell>
        <mxCell id="L2JsjosqdbN5uO_wockT-25" value="" style="rounded=1;whiteSpace=wrap;html=1;fontFamily=Times New Roman;fontSize=14;" parent="1" vertex="1">
          <mxGeometry x="550" y="300" width="120" height="60" as="geometry" />
        </mxCell>
        <mxCell id="L2JsjosqdbN5uO_wockT-26" value="React.js component" style="text;html=1;align=center;verticalAlign=middle;whiteSpace=wrap;rounded=0;fontFamily=Times New Roman;fontSize=14;" parent="1" vertex="1">
          <mxGeometry x="580" y="205" width="60" height="30" as="geometry" />
        </mxCell>
        <mxCell id="L2JsjosqdbN5uO_wockT-27" value="socket.io client" style="text;html=1;align=center;verticalAlign=middle;whiteSpace=wrap;rounded=0;fontFamily=Times New Roman;fontSize=14;" parent="1" vertex="1">
          <mxGeometry x="580" y="315" width="60" height="30" as="geometry" />
        </mxCell>
        <mxCell id="L2JsjosqdbN5uO_wockT-28" value="socket.io server" style="text;html=1;align=center;verticalAlign=middle;whiteSpace=wrap;rounded=0;fontFamily=Times New Roman;fontSize=14;" parent="1" vertex="1">
          <mxGeometry x="220" y="315" width="60" height="30" as="geometry" />
        </mxCell>
        <mxCell id="L2JsjosqdbN5uO_wockT-29" value="middleware" style="text;html=1;align=center;verticalAlign=middle;whiteSpace=wrap;rounded=0;fontFamily=Times New Roman;fontSize=14;" parent="1" vertex="1">
          <mxGeometry x="220" y="205" width="60" height="30" as="geometry" />
        </mxCell>
        <mxCell id="L2JsjosqdbN5uO_wockT-30" value="" style="rounded=1;whiteSpace=wrap;html=1;fontFamily=Times New Roman;fontSize=14;" parent="1" vertex="1">
          <mxGeometry x="30" y="190" width="120" height="60" as="geometry" />
        </mxCell>
        <mxCell id="L2JsjosqdbN5uO_wockT-31" value="" style="rounded=1;whiteSpace=wrap;html=1;fontFamily=Times New Roman;fontSize=14;" parent="1" vertex="1">
          <mxGeometry x="30" y="300" width="120" height="60" as="geometry" />
        </mxCell>
        <mxCell id="L2JsjosqdbN5uO_wockT-33" value="controller" style="text;html=1;align=center;verticalAlign=middle;whiteSpace=wrap;rounded=0;fontFamily=Times New Roman;fontSize=14;" parent="1" vertex="1">
          <mxGeometry x="60" y="205" width="60" height="30" as="geometry" />
        </mxCell>
        <mxCell id="L2JsjosqdbN5uO_wockT-34" value="model" style="text;html=1;align=center;verticalAlign=middle;whiteSpace=wrap;rounded=0;fontFamily=Times New Roman;fontSize=14;" parent="1" vertex="1">
          <mxGeometry x="60" y="315" width="60" height="30" as="geometry" />
        </mxCell>
        <mxCell id="L2JsjosqdbN5uO_wockT-35" value="" style="endArrow=classic;startArrow=classic;html=1;rounded=0;entryX=0;entryY=0.5;entryDx=0;entryDy=0;exitX=1;exitY=0.5;exitDx=0;exitDy=0;fontFamily=Times New Roman;fontSize=14;" parent="1" source="L2JsjosqdbN5uO_wockT-30" target="L2JsjosqdbN5uO_wockT-21" edge="1">
          <mxGeometry width="50" height="50" relative="1" as="geometry">
            <mxPoint x="200" y="330" as="sourcePoint" />
            <mxPoint x="250" y="280" as="targetPoint" />
          </mxGeometry>
        </mxCell>
        <mxCell id="L2JsjosqdbN5uO_wockT-36" value="" style="endArrow=classic;startArrow=classic;html=1;rounded=0;entryX=0.5;entryY=1;entryDx=0;entryDy=0;fontFamily=Times New Roman;fontSize=14;" parent="1" source="L2JsjosqdbN5uO_wockT-31" target="L2JsjosqdbN5uO_wockT-30" edge="1">
          <mxGeometry width="50" height="50" relative="1" as="geometry">
            <mxPoint x="200" y="330" as="sourcePoint" />
            <mxPoint x="250" y="280" as="targetPoint" />
          </mxGeometry>
        </mxCell>
        <mxCell id="L2JsjosqdbN5uO_wockT-37" value="" style="shape=datastore;whiteSpace=wrap;html=1;fontFamily=Times New Roman;fontSize=14;" parent="1" vertex="1">
          <mxGeometry x="30" y="460" width="120" height="140" as="geometry" />
        </mxCell>
        <mxCell id="L2JsjosqdbN5uO_wockT-38" value="" style="endArrow=classic;startArrow=classic;html=1;rounded=0;entryX=0.5;entryY=1;entryDx=0;entryDy=0;exitX=0.5;exitY=0;exitDx=0;exitDy=0;fontFamily=Times New Roman;fontSize=14;" parent="1" source="L2JsjosqdbN5uO_wockT-37" target="L2JsjosqdbN5uO_wockT-31" edge="1">
          <mxGeometry width="50" height="50" relative="1" as="geometry">
            <mxPoint x="200" y="430" as="sourcePoint" />
            <mxPoint x="250" y="380" as="targetPoint" />
          </mxGeometry>
        </mxCell>
        <mxCell id="L2JsjosqdbN5uO_wockT-39" value="TCP" style="text;html=1;align=center;verticalAlign=middle;whiteSpace=wrap;rounded=0;fontFamily=Times New Roman;fontSize=14;" parent="1" vertex="1">
          <mxGeometry x="90" y="410" width="60" height="30" as="geometry" />
        </mxCell>
        <mxCell id="L2JsjosqdbN5uO_wockT-40" value="PostgreSQL 16" style="text;html=1;align=center;verticalAlign=middle;whiteSpace=wrap;rounded=0;fontFamily=Times New Roman;fontSize=14;" parent="1" vertex="1">
          <mxGeometry x="60" y="530" width="60" height="30" as="geometry" />
        </mxCell>
        <mxCell id="FV3gMRPloSwDk_IOS_Gm-1" value="" style="endArrow=classic;startArrow=classic;html=1;rounded=0;exitX=1;exitY=0.5;exitDx=0;exitDy=0;entryX=0;entryY=0.5;entryDx=0;entryDy=0;" edge="1" parent="1" source="L2JsjosqdbN5uO_wockT-21" target="L2JsjosqdbN5uO_wockT-24">
          <mxGeometry width="50" height="50" relative="1" as="geometry">
            <mxPoint x="400" y="330" as="sourcePoint" />
            <mxPoint x="450" y="280" as="targetPoint" />
          </mxGeometry>
        </mxCell>
      </root>
    </mxGraphModel>
  </diagram>
</mxfile>
